/* XPM */
static char * freecol_xpm[] = {
"32 32 256 2",
"  	c None",
". 	c #39200E",
"+ 	c #42250D",
"@ 	c #4B1667",
"# 	c #4A2E1B",
"$ 	c #4D3018",
"% 	c #503012",
"& 	c #483222",
"* 	c #4A331E",
"= 	c #563109",
"- 	c #48372B",
"; 	c #552571",
"> 	c #53361D",
", 	c #553719",
"' 	c #4F3824",
") 	c #5B361B",
"! 	c #603516",
"~ 	c #5D3816",
"{ 	c #613B12",
"] 	c #5D3348",
"^ 	c #5B3C1E",
"/ 	c #583D2A",
"( 	c #5B3D24",
"_ 	c #5E2F78",
": 	c #663F1F",
"< 	c #6B431C",
"[ 	c #6A460F",
"} 	c #61396F",
"| 	c #664525",
"1 	c #70421B",
"2 	c #624823",
"3 	c #5F4732",
"4 	c #59493B",
"5 	c #6C4424",
"6 	c #66472E",
"7 	c #673B7E",
"8 	c #6A4F34",
"9 	c #784F13",
"0 	c #804A1D",
"a 	c #76501A",
"b 	c #745024",
"c 	c #744F2B",
"d 	c #7B4F1B",
"e 	c #69552E",
"f 	c #725031",
"g 	c #6F551F",
"h 	c #6F476D",
"i 	c #6F5330",
"j 	c #765513",
"k 	c #725137",
"l 	c #7C5025",
"m 	c #6D543F",
"n 	c #64574F",
"o 	c #695648",
"p 	c #725248",
"q 	c #71563A",
"r 	c #755C11",
"s 	c #885119",
"t 	c #744C72",
"u 	c #8E4F1C",
"v 	c #734B8B",
"w 	c #995117",
"x 	c #846011",
"y 	c #8B5926",
"z 	c #7F5C37",
"A 	c #875A2D",
"B 	c #875E1A",
"C 	c #97561C",
"D 	c #83601E",
"E 	c #825D32",
"F 	c #7F5C42",
"G 	c #726052",
"H 	c #7A6043",
"I 	c #935A20",
"J 	c #7A6048",
"K 	c #825E3F",
"L 	c #816232",
"M 	c #77624F",
"N 	c #85632A",
"O 	c #806240",
"P 	c #6E6762",
"Q 	c #8D6710",
"R 	c #74665C",
"S 	c #A85915",
"T 	c #8A6A11",
"U 	c #8C6D07",
"V 	c #8B6B1C",
"W 	c #7C6A5B",
"X 	c #837029",
"Y 	c #896847",
"Z 	c #A95F21",
"` 	c #9C642A",
" .	c #A56220",
"..	c #836A57",
"+.	c #94673B",
"@.	c #886D3E",
"#.	c #876B4E",
"$.	c #8E6D33",
"%.	c #8F6A44",
"&.	c #946B34",
"*.	c #8D741A",
"=.	c #876D55",
"-.	c #956F2B",
";.	c #94760D",
">.	c #86782A",
",.	c #9C6B36",
"'.	c #B8651A",
").	c #86725D",
"!.	c #967A0E",
"~.	c #A07034",
"{.	c #997143",
"].	c #877566",
"^.	c #A1713B",
"/.	c #967B2E",
"(.	c #9E7F04",
"_.	c #B06F2C",
":.	c #91775E",
"<.	c #977754",
"[.	c #867B70",
"}.	c #A37447",
"|.	c #8F6E9E",
"1.	c #817C7A",
"2.	c #8F7965",
"3.	c #96785B",
"4.	c #9D7653",
"5.	c #B97027",
"6.	c #AE7338",
"7.	c #847D76",
"8.	c #957D56",
"9.	c #B67632",
"0.	c #9C852B",
"a.	c #A28811",
"b.	c #C37527",
"c.	c #A68721",
"d.	c #AA832E",
"e.	c #937D98",
"f.	c #AE8817",
"g.	c #908579",
"h.	c #898785",
"i.	c #8E867F",
"j.	c #AB8051",
"k.	c #978575",
"l.	c #B87F45",
"m.	c #A18566",
"n.	c #B0863B",
"o.	c #A78F27",
"p.	c #968A73",
"q.	c #9D8871",
"r.	c #9C8C63",
"s.	c #C58034",
"t.	c #B6834D",
"u.	c #BD8342",
"v.	c #A18E54",
"w.	c #A5886F",
"x.	c #9A8D82",
"y.	c #B0980C",
"z.	c #968F88",
"A.	c #948F8E",
"B.	c #9F8D7D",
"C.	c #B39B00",
"D.	c #BC8E3F",
"E.	c #A09766",
"F.	c #C98943",
"G.	c #9C948E",
"H.	c #999593",
"I.	c #B2A014",
"J.	c #9F9589",
"K.	c #AA957F",
"L.	c #A194A1",
"M.	c #BBA30A",
"N.	c #AE967B",
"O.	c #AA9687",
"P.	c #BBA700",
"Q.	c #B79571",
"R.	c #A69A88",
"S.	c #CE9150",
"T.	c #A39B95",
"U.	c #AE9B78",
"V.	c #A69B8F",
"W.	c #A09C9A",
"X.	c #AB9A90",
"Y.	c #B09A85",
"Z.	c #C79E36",
"`.	c #C2986D",
" +	c #C3A529",
".+	c #D7944E",
"++	c #CE975C",
"@+	c #A1A3A0",
"#+	c #BD9C7E",
"$+	c #ACA195",
"%+	c #B59F89",
"&+	c #A7A2A1",
"*+	c #DD974A",
"=+	c #AFA290",
"-+	c #B4A090",
";+	c #ABA39C",
">+	c #B1A589",
",+	c #C8B214",
"'+	c #C1A57E",
")+	c #A8AAA8",
"!+	c #B3A89C",
"~+	c #BCA690",
"{+	c #B1A9A2",
"]+	c #CBB22E",
"^+	c #AFAAA9",
"/+	c #D0B70A",
"(+	c #E6A050",
"_+	c #BCB266",
":+	c #BAAFA3",
"<+	c #B0B2AF",
"[+	c #C3AD97",
"}+	c #B5B0AF",
"|+	c #BEAF9D",
"1+	c #B8B0A9",
"2+	c #BBB5B4",
"3+	c #C0B5A9",
"4+	c #B6B8B6",
"5+	c #BEB6AF",
"6+	c #EDB344",
"7+	c #E4C517",
"8+	c #BCBFBC",
"9+	c #C7BCB0",
"0+	c #C6BDB6",
"a+	c #C3BEBC",
"b+	c #CCBFAC",
"c+	c #CEC3B7",
"d+	c #C4C6C3",
"e+	c #CAC5C4",
"f+	c #CDC5BE",
"g+	c #C3C8CA",
"h+	c #C7CCCF",
"i+	c #D2C9C2",
"j+	c #D8CAB7",
"k+	c #D6CBBE",
"l+	c #CCCECB",
"m+	c #D1CCCB",
"n+	c #D6CEC7",
"o+	c #CFD4D7",
"p+	c #D2D4D1",
"q+	c #D8D3D2",
"r+	c #DBD3CB",
"s+	c #DDD8D7",
"t+	c #E0D8D1",
"u+	c #D9DCD8",
"v+	c #D7DDDF",
"w+	c #E1DBDA",
"x+	c #DFE1DD",
"y+	c #DCE2E4",
"z+	c #E6E0DF",
"A+	c #E2E4E1",
"B+	c #EDE5DE",
"C+	c #E6E8E5",
"D+	c #EBE6E5",
"E+	c #E9ECE9",
"F+	c #EDEFEC",
"G+	c #F3EDED",
"                                                                ",
"                            h @                                 ",
"                            p _ _                               ",
"                            ( - v @ }                           ",
"                    3   G   % ~ ].L.|.                          ",
"      @+2.  /     l k H.0+q J H.m+q+1+                          ",
"      @+u+=.,   F )+e+-+G.p+x+z+2+f+                            ",
"      @+x+x+..4+A+C+r+k+^+F+F+w+q+z.                            ",
"      4+p+F+C+4+F+t+9+=+{+x+z+r+{+G 1.                          ",
"      <+z+G+w+e+C+i+=+-+{+w+1+G.H.a+e+                          ",
"      d+u+r+i+2+E+9+-+R.;+x.&+H.q+u+f+    k   ) 7.              ",
"    {+{+J.>+> l+r+B.M x.l+u+x+q+e+^+1+    ) [.@+0+              ",
"  1.  ]+2 E % ).r.$+|+8+G+x+B+c+b+~+g.| o )+;+w+f+              ",
"      a.i l &+x+w+r+9+)+C+G+b+%+-+q.[.p+p+x+W.D+0+              ",
"      *.f +.7.A+n+9+-+a+C+k+|+=+k.m A.C+C+D+t+0+$+              ",
"      8.c.+.R x+f+:+=+8+s+0+J.2.z.;+;+u+G+w+q+z.{+              ",
"      k.V %.N.A+c+!+V.1+:.@.k.V.!+0+1+A+z+r+0+].G A.            ",
"        q.a.R.r+:+x.6 J V.4+0+i+:+1+}+z+i+{+  H.1.T.            ",
"        M L 3+k.8 ( 7.u+x+C+D+f+:+X.1+B.  ].;+d+e+{+            ",
"        #.b 2 3 %.K o A+F+C+9+~+Y.#.g.)+4+w+i+x+n+i.            ",
"        H i ;.z S.u.#.p+G+t+~+N.K.W.v+z+C+C+f+z+i+i.            ",
"        > 3.Y !.-.y O v+G+k+Y.Y.K.z.w+F+F+z+r+s+9+J.            ",
"        ^ > 3.3.!.s #.C+t+[+K.w.O g g+C+z+t+i+f+J.              ",
"          , , Y x d ;+1+R.m.+ K m - o+E+w+r+0+>+                ",
"            ~ (  .0.x.++.+{.* 6 f +.h+i+1+k.{.L                 ",
"              { ( 5.;.D.S..+.+,.&.j.!+`.+.+ u.u.$.    l f J.1+  ",
"                { ^ Z s /+Z.7+y.V z *+.+F.# ( u.u.!.2.m+q+0+    ",
"                  { > 1 Z 9 0 + [ U y./+,+/+/+ +2+F+C+n+        ",
"                      ~ & :  .s.s._.l ^ 1 + ~ | v+q+            ",
"                            > & , 1 s _.5.s..+|+l.              ",
"                                    , > * & - > {               ",
"                                                                "};
